# xmcd
#
# Track frame offsets:
# 150
# 17168
# 32390
# 50564
# 67999
# 84000
# 101798
# 122801
# 139819
# 155027
# 170151
# 189442
#
# Disc length: 2715 seconds
#
# Revision: 1
# Processed by: cddbd v1.4PL0 Copyright (c) Steve Scherf et al.
# Submitted via: CedeCatalogueitor 2.5 http://usuarios.lycos.es/kakasboy
#
DISCID=9d0a990c
DTITLE=Consuelo - Eres
DYEAR=1900
DGENRE=
TTITLE0=Eres
TTITLE1=Faltas Tú
TTITLE2=No Vale La Pena Enamorarse
TTITLE3=Una Aventura
TTITLE4=Quedate Conmigo Amor
TTITLE5=Cada Uno Por Su Lado
TTITLE6=Amores
TTITLE7=Se Rumorea
TTITLE8=Si Quieres Venir Conmigo
TTITLE9=Me Han Dicho De Ti
TTITLE10=Tiempo Perdido
TTITLE11=Quisiera Ser Invisible
EXTD=
EXTT0=
EXTT1=
EXTT2=
EXTT3=
EXTT4=
EXTT5=
EXTT6=
EXTT7=
EXTT8=
EXTT9=
EXTT10=
EXTT11=
PLAYORDER=
